<svg xmlns="http://www.w3.org/2000/svg" width="25" height="25" viewBox="0 0 25 25">
  <defs>
    <style>
      .cls-1 {
        fill-rule: evenodd;
      }
    </style>
  </defs>
  <path id="Deer_1" data-name="Deer 1" class="cls-1" d="M15.082,0c-0.548.364-.107,1.61-0.71,1.949l-0.142.042-0.095-.042V1.016l-0.189-.169-0.237.042c0.054,0.94.018,1.561-.757,1.949l-0.237-.085-0.237-.678-0.237.042c0.022,1.1.854,1.654,0.947,2.839H13.142a0.871,0.871,0,0,0-.852-0.339V4.66a1.463,1.463,0,0,0,.994.975c0.111,0.428-.04.9,0.047,1.4,0.63,3.613-1.811,5.117-4.448,5.974l-2.6.551c-0.808.368-1.16,0.962-2.224,0.424L3.393,13.6,3.2,12.8l-0.047.085a1.085,1.085,0,0,0-.189,1.568,9.93,9.93,0,0,1,1.609.424l0.047,0.085-0.189.975c0.148,0.659.662,1.294,0.379,2.2-0.346,1.11-1.47,1.638-1.846,2.585-0.323.814,0.084,1.868-.189,2.627-0.235.651-.883,0.683-0.757,1.61L2.115,25a1.721,1.721,0,0,0,.663-0.551c1.267-1.179.562-1.356,1.136-2.966a4.038,4.038,0,0,1,1.23-1.61c0.853-.618,2.183-0.993,2.839-1.78,0.42-.5.479-1.234,1.088-1.568,1.462-.8,3.7-0.852,5.442-1.356l2.461-.847a18.373,18.373,0,0,1,2.461-1.271A4.624,4.624,0,0,1,19.246,15c-0.207.375-.639,0.329-0.71,0.89a0.5,0.5,0,0,0,.379.254,3.038,3.038,0,0,0,1.467-1.525l-0.095-1.229c0.136-.5.644-0.637,0.71-1.271-0.694-1.215-2.807.156-3.691,0.254l-0.095-.127c-0.413-.919-1.725-3.9-1.183-5.127,0.527-.816,1.677-0.014,2.224-1.78H18.158L16.927,5.3a15.238,15.238,0,0,0-2.887-.381c-0.129-.337-0.522-0.382-0.615-0.72-0.346-1.258,2.4-1.916,2.934-2.839A0.939,0.939,0,0,0,16.076.8c-0.33.366-.333,0.9-0.9,1.059A4.508,4.508,0,0,0,15.082,0Z"/>
</svg>
